# xmcd
#
# Track frame offsets:
#	150
#	15144
#	32941
#	52417
#	72887
#	90902
#	103018
#	119407
#	133039
#	152499
#	165273
#	180779
#	196886
#	211706
#	227897
#	243360
#	255895
#	268607
#	286188
#	304107
#	318882
#	335536
#	351434
#	352320
#	353028
#	354066
#
# Disc length: 4735 seconds
#
# Revision: 1
# Processed by: cddbd v1.5.1PL2 Copyright (c) Steve Scherf et al.
# Submitted via: audiograbber 1.83.01
#
DISCID=69127d1a
DTITLE=Various Artist - CDX 395
DYEAR=2006
DGENRE=COuntry
TTITLE0=Toby Keith - A little too late
TTITLE1=Rockie Lynne - Do me still
TTITLE2=Dixie Chicks - Everybody knows
TTITLE3=David Lee Roth and the John Jorgenson Bluegrass Band - Jump
TTITLE4=David Lee Roth and the John Jorgenson Bluegrass Band - Jame's cryin'
TTITLE5=Sawyer Brown - Keep your hands to yourself
TTITLE6=Rascal Flatts - Me and my gang
TTITLE7=Darryl Worley - Nothin' but a love thang
TTITLE8=Susan Haynes - Not that bad
TTITLE9=Van Morrison - Once a day
TTITLE10=Kenny Chesney - Summertime
TTITLE11=Sammy Kershaw - Tennessee girl
TTITLE12=Martina McBride - 'til I can make it on my own
TTITLE13=Gary Nichols - Unbroken ground
TTITLE14=Vince Hatfield - 18 inches
TTITLE15=Shelley Lane - A little twang
TTITLE16=Tim Murphy - All the silence I can stand
TTITLE17=Micky and the Motorcars - Carolina morning
TTITLE18=Brett Daniles - If I was gonny leave someone
TTITLE19=Lori Willcuts - Save me
TTITLE20=Native Mind - You and me
TTITLE21=Dustin Evans - If I die before you wake
TTITLE22=Catherine Britt - CMA Music Festival liner 1
TTITLE23=Catherine Britt  - CMA Music Festival liner 2
TTITLE24=Jace Everett - CMA Music Festival liner 1
TTITLE25=Jace Everett - CMA Music Festival liner 2
EXTD=
EXTT0=
EXTT1=
EXTT2=
EXTT3=
EXTT4=
EXTT5=
EXTT6=
EXTT7=
EXTT8=
EXTT9=
EXTT10=
EXTT11=
EXTT12=
EXTT13=
EXTT14=
EXTT15=
EXTT16=
EXTT17=
EXTT18=
EXTT19=
EXTT20=
EXTT21=
EXTT22=
EXTT23=
EXTT24=
EXTT25=
PLAYORDER=
